<svg width="130" height="20" viewBox="0 0 130 20" fill="none" xmlns="http://www.w3.org/2000/svg">
<path fill-rule="evenodd" clip-rule="evenodd" d="M7 0H14H19V4V16V20H14H0V16H14V4H7V0Z" fill="#CEC4AB"/>
<path fill-rule="evenodd" clip-rule="evenodd" d="M41 0H36V16V20H41H50H55V16V0H50V16H48V8H43V16H41V0Z" fill="#CEC4AB"/>
<path fill-rule="evenodd" clip-rule="evenodd" d="M66 0H61V8V12V20H66V12H73V8H66V0ZM68 0H75H80V4V20H75V4H68V0Z" fill="#CEC4AB"/>
<path fill-rule="evenodd" clip-rule="evenodd" d="M86 0H91H98V4H91V20H86V0ZM105 0H100V20H105V0Z" fill="#CEC4AB"/>
<path fill-rule="evenodd" clip-rule="evenodd" d="M130 0H111V4H130V0ZM125 12V16H111V20H130V16V12V8H118V12H125Z" fill="#CEC4AB"/>
</svg>
